<?xml version="1.0" encoding="UTF-8"?>
<svg id="Layer_1" data-name="Layer 1" xmlns="http://www.w3.org/2000/svg" viewBox="0 0 2563.34 670.87">
  <defs>
    <style>
      .cls-1 {
        fill: #ff4e17;
      }
    </style>
  </defs>
  <g>
    <path class="cls-1" d="M1086.16,193.64c-17.2,0-31.33,14.14-31.33,31.72s14.14,30.95,31.33,30.95,31.33-14.14,31.33-30.95-13.76-31.72-31.33-31.72Z"/>
    <rect class="cls-1" x="1060.94" y="275.74" width="50.82" height="187.99"/>
    <path class="cls-1" d="M1650.5,270.77c-20.25,0-42.79,8.79-54.26,28.28v-23.31h-49.29v187.99h50.82v-108.13c0-21.78,12.99-38.97,35.15-38.97,24.45,0,34.77,16.43,34.77,37.44v109.66h50.82v-118.45c0-41.26-21.4-74.51-68.01-74.51Z"/>
    <path class="cls-1" d="M1836.47,270.01c-56.17,0-98.58,41.65-98.58,99.72s42.41,99.73,98.58,99.73,98.58-42.03,98.58-99.73-42.41-99.72-98.58-99.72Zm0,153.22c-24.84,0-47.76-18.34-47.76-53.49s22.92-53.49,47.76-53.49,47.76,17.96,47.76,53.49-22.92,53.49-47.76,53.49Z"/>
    <path class="cls-1" d="M2170.46,270.39c-24.84,0-44.7,8.41-59.61,31.33-9.55-20.25-30.19-31.33-55.78-31.33-20.63,0-44.7,9.93-55.02,28.27v-22.92h-48.53v187.99h50.82v-110.04c0-20.63,12.99-37.06,35.15-37.06s33.24,15.28,33.24,35.54v111.57h50.44v-110.04c0-20.25,12.99-37.06,34.77-37.06,23.31,0,33.24,15.28,33.24,35.54v111.57h49.29v-121.88c0-50.44-33.24-71.45-68.01-71.45Z"/>
    <polygon class="cls-1" points="2391.74 275.74 2345.51 385.78 2295.46 275.74 2238.53 275.74 2318.38 440.03 2274.06 537.85 2327.94 537.85 2446 275.74 2391.74 275.74"/>
    <path class="cls-1" d="M1229.61,423.22c-24.84,0-47.76-18.34-47.76-53.49s22.93-53.49,47.76-53.49c15.41,0,29.01,6.93,37.12,20.68l47.93-15.72c-15.42-31.36-46.3-51.19-85.05-51.19-56.17,0-98.58,41.65-98.58,99.72s42.41,99.73,98.58,99.73c46.68,0,81.92-29.05,92.49-71.98h-52.78c-7.56,17.11-22.5,25.75-39.71,25.75Z"/>
    <path class="cls-1" d="M1429.11,270.01c-56.17,0-98.58,41.65-98.58,99.72s42.41,99.73,98.58,99.73,98.58-42.03,98.58-99.73-42.41-99.72-98.58-99.72Zm0,153.22c-24.84,0-47.76-18.34-47.76-53.49s22.93-53.49,47.76-53.49,47.76,17.96,47.76,53.49-22.93,53.49-47.76,53.49Z"/>
    <path class="cls-1" d="M993.91,299.09c10.42-13.81,12.59-27.07,12.59-42.93s-14.44-63.36-67.06-63.36h-120.73V463.55h130.41c64.96,0,92.38-44.99,92.38-92.47,0-21.77-9.07-50.03-47.6-72Zm-124.21-64.74h61.49c14.15,0,25.61,11.47,25.61,25.61h0c0,14.15-11.47,25.61-25.61,25.61h-61.49v-51.23Zm73.4,187.65h-73.4v-94.87h73.4c26.2,0,47.43,21.24,47.43,47.43,0,29.04-18.88,47.43-47.43,47.43Z"/>
  </g>
  <path class="cls-1" d="M463.86,280.56c8.1-16.4,13.75-36.97,13.75-62.57,0-35.12-14.04-66.91-39.54-89.52-25.16-22.31-59.2-34.1-98.44-34.1l-135.22-.63c-26.1,0-47.26,21.16-47.26,47.26v400.77h236.55c88.33,0,139.96-73.68,139.96-140.14,0-50.49-28.03-96.69-69.79-121.07Zm-124.24-151.63c63.48,0,103.43,38.05,103.43,89.06,0,68.46-51.59,99.77-103.79,99.77-49.04,0-89.43-40.39-89.43-102.99v-34.56c0-22.69-13.57-43.06-34.57-49.77v-1.51h124.35Z"/>
</svg>